<svg width="18" height="18" viewBox="0 0 18 18" xmlns="http://www.w3.org/2000/svg">
    <path d="M8.87012 17.3906C13.4668 17.3906 17.2549 13.5938 17.2549 9.00586C17.2549 4.40918 13.458 0.612305 8.87012 0.612305C4.27344 0.612305 0.485352 4.40918 0.485352 9.00586C0.485352 13.5938 4.28223 17.3906 8.87012 17.3906ZM8.87012 16.1777C4.89746 16.1777 1.69824 12.9785 1.69824 9.00586C1.69824 5.02441 4.88867 1.8252 8.87012 1.8252C12.8428 1.8252 16.042 5.02441 16.0508 9.00586C16.0596 12.9785 12.8516 16.1777 8.87012 16.1777ZM13.1416 8.99707C13.1416 8.84766 13.0801 8.72461 12.9395 8.58398L10.0391 5.68359C9.94238 5.58691 9.81934 5.53418 9.66113 5.53418C9.37109 5.53418 9.15137 5.75391 9.15137 6.04395C9.15137 6.20215 9.21289 6.33398 9.30957 6.43066L10.5137 7.62598L11.5332 8.52246L9.90723 8.46094H5.12598C4.80957 8.46094 4.58105 8.68066 4.58105 9.00586C4.58105 9.31348 4.80957 9.54199 5.12598 9.54199H9.90723L11.5332 9.48047L10.5137 10.377L9.30957 11.5635C9.2041 11.6689 9.15137 11.792 9.15137 11.9502C9.15137 12.2402 9.37109 12.4688 9.66113 12.4688C9.81934 12.4688 9.94238 12.416 10.0391 12.3193L12.9395 9.41895C13.0713 9.28711 13.1416 9.16406 13.1416 8.99707Z" fill="#2D2D2D"/>
</svg>