<svg width="17" height="16" viewBox="0 0 17 16" fill="none" xmlns="http://www.w3.org/2000/svg">
    <path d="M2.36111 12.9288L10.2075 15.5679C11.6135 16.0408 12.5832 15.5592 13.0496 14.1727L15.7018 6.28742C16.1682 4.90086 15.6866 3.9311 14.2806 3.45819L6.43422 0.819057C5.0347 0.348328 4.06065 0.821264 3.5921 2.2143L0.939888 10.0996C0.473518 11.4861 0.961591 12.458 2.36111 12.9288ZM2.87902 11.6677C2.28293 11.4672 2.05709 11.0451 2.26849 10.4166L4.84224 2.76461C5.05363 2.13612 5.48868 1.93626 6.08477 2.13676L13.7627 4.71923C14.3523 4.91755 14.5846 5.34187 14.3732 5.97036L11.7995 13.6224C11.5881 14.2508 11.1465 14.4485 10.5569 14.2502L2.87902 11.6677ZM6.10814 5.47668C6.67613 5.67494 7.3082 5.36104 7.50434 4.77791C7.6983 4.20126 7.38222 3.57566 6.81205 3.38388C6.2354 3.18993 5.6055 3.49734 5.41154 4.074C5.21541 4.65713 5.53366 5.27624 6.10814 5.47668ZM11.7321 7.36831C12.3001 7.56657 12.9322 7.25268 13.1283 6.66954C13.3223 6.09289 13.0127 5.46947 12.436 5.27552C11.8594 5.08156 11.2295 5.38898 11.0355 5.96563C10.8394 6.54876 11.1577 7.16788 11.7321 7.36831ZM5.16014 8.29516C5.73031 8.48693 6.36239 8.17304 6.55853 7.58991C6.7503 7.01973 6.42775 6.39196 5.86405 6.20236C5.2874 6.0084 4.66399 6.318 4.47221 6.88817C4.27607 7.4713 4.57701 8.09902 5.16014 8.29516ZM10.7841 10.1868C11.3543 10.3786 11.9864 10.0647 12.1825 9.48154C12.3743 8.91136 12.0582 8.28577 11.488 8.09399C10.9114 7.90003 10.288 8.20963 10.0962 8.7798C9.90006 9.36294 10.2075 9.99283 10.7841 10.1868ZM4.21214 11.1136C4.78232 11.3054 5.40791 10.9893 5.60187 10.4127C5.79583 9.83603 5.47975 9.21043 4.91606 9.02083C4.33941 8.82687 3.71599 9.13647 3.52203 9.71312C3.32807 10.2898 3.63549 10.9197 4.21214 11.1136ZM9.83613 13.0053C10.4128 13.1992 11.0384 12.8831 11.2323 12.3065C11.4263 11.7298 11.1102 11.1042 10.54 10.9125C9.96987 10.7207 9.34646 11.0303 9.1525 11.6069C8.95854 12.1836 9.26596 12.8135 9.83613 13.0053Z" fill="#595959"/>
</svg>
