<svg width="13" height="13" viewBox="0 0 13 13" fill="none" xmlns="http://www.w3.org/2000/svg">
    <path d="M5.9375 9.32422L6.83984 8.42188C6.21289 8.35742 5.74414 8.14648 5.42188 7.82422C4.49609 6.89844 4.49609 5.59766 5.41602 4.67773L7.27344 2.82617C8.19336 1.90625 9.48828 1.90039 10.4082 2.82617C11.3398 3.75195 11.334 5.04688 10.4141 5.9668L9.54102 6.83984C9.72852 7.26758 9.79883 7.80664 9.68164 8.27539L11.252 6.71094C12.6348 5.33984 12.6348 3.38281 11.2461 1.98828C9.85156 0.599609 7.90039 0.605469 6.52344 1.98242L4.57812 3.93359C3.20117 5.31055 3.19531 7.26172 4.58398 8.65625C4.89453 8.9668 5.33398 9.21289 5.9375 9.32422ZM6.62305 4.5957L5.72656 5.49805C6.34766 5.55664 6.81641 5.76758 7.14453 6.0957C8.07031 7.02148 8.07031 8.32227 7.15039 9.23633L5.29297 11.0938C4.36719 12.0137 3.07227 12.0137 2.15234 11.0938C1.22656 10.168 1.22656 8.87305 2.14648 7.95312L3.01953 7.08008C2.83203 6.64648 2.76172 6.10742 2.87891 5.63867L1.30859 7.20312C-0.0683594 8.58008 -0.0742188 10.5371 1.31445 11.9258C2.70898 13.3203 4.66602 13.3086 6.03711 11.9375L7.98828 9.98633C9.36523 8.60938 9.37109 6.65234 7.98242 5.26367C7.66602 4.95312 7.23242 4.70703 6.62305 4.5957Z" fill="#272727"/>
</svg>