<svg width="14" height="14" viewBox="0 0 14 14" fill="none" xmlns="http://www.w3.org/2000/svg">
    <path d="M0.935547 7.80566H6.2002V13.0791C6.2002 13.5186 6.56934 13.8965 7.01758 13.8965C7.46582 13.8965 7.82617 13.5186 7.82617 13.0791V7.80566H13.0996C13.5391 7.80566 13.9082 7.44531 13.9082 6.99707C13.9082 6.54883 13.5391 6.18848 13.0996 6.18848H7.82617V0.915039C7.82617 0.475586 7.46582 0.0976562 7.01758 0.0976562C6.56934 0.0976562 6.2002 0.475586 6.2002 0.915039V6.18848H0.935547C0.496094 6.18848 0.118164 6.54883 0.118164 6.99707C0.118164 7.44531 0.496094 7.80566 0.935547 7.80566Z" fill="#595959"/>
</svg>